<svg width="7" height="12" viewBox="0 0 7 12" fill="none" xmlns="http://www.w3.org/2000/svg">
<path opacity="0.8" d="M6.41497 10.8699L6.80597 10.5081C6.92716 10.3939 6.995 10.2406 6.995 10.081C6.995 9.92132 6.92716 9.768 6.80597 9.6538L2.37797 5.52298L6.81097 1.39308C6.93216 1.27887 7 1.12556 7 0.965908C7 0.806258 6.93216 0.652942 6.81097 0.538741L6.42297 0.176937C6.36313 0.120904 6.29177 0.0764014 6.21305 0.0460233C6.13433 0.0156452 6.04983 0 5.96447 0C5.87912 0 5.79462 0.0156452 5.7159 0.0460233C5.63718 0.0764014 5.56582 0.120904 5.50597 0.176937L0.205974 5.09765C0.080018 5.20948 0.00615931 5.36198 -2.6226e-05 5.52298C0.00617266 5.68488 0.0808077 5.83816 0.207974 5.95015L5.49097 10.8663C5.55155 10.9223 5.62355 10.9667 5.70283 10.997C5.78211 11.0273 5.86712 11.043 5.95297 11.043C6.03883 11.043 6.12383 11.0273 6.20312 10.997C6.2824 10.9667 6.35439 10.9223 6.41497 10.8663V10.8699Z" fill="black"/>
</svg>
