<svg width="12" height="7" viewBox="0 0 12 7" fill="none" xmlns="http://www.w3.org/2000/svg">
<path opacity="0.8" d="M11.8121 0.585026L11.4191 0.194026C11.295 0.0728437 11.1285 0.00499988 10.9551 0.00499988C10.7817 0.00499988 10.6151 0.0728437 10.4911 0.194026L6.00408 4.62203L1.51808 0.189026C1.39403 0.0678438 1.22749 0 1.05408 0C0.88066 0 0.714125 0.0678438 0.590076 0.189026L0.197076 0.577026C0.136212 0.636869 0.0878719 0.708231 0.0548745 0.78695C0.021877 0.865669 0.00488281 0.950171 0.00488281 1.03553C0.00488281 1.12088 0.021877 1.20538 0.0548745 1.2841C0.0878719 1.36282 0.136212 1.43418 0.197076 1.49403L5.54208 6.79403C5.66355 6.91998 5.8292 6.99384 6.00408 7.00003C6.17994 6.99383 6.34644 6.91919 6.46808 6.79203L11.8081 1.50903C11.8689 1.44845 11.9172 1.37645 11.9501 1.29717C11.9831 1.21789 12 1.13288 12 1.04703C12 0.961174 11.9831 0.876167 11.9501 0.796885C11.9172 0.717602 11.8689 0.645605 11.8081 0.585026H11.8121Z" fill="black"/>
</svg>
