<svg width="12" height="13" viewBox="0 0 12 13" fill="none" xmlns="http://www.w3.org/2000/svg">
<path d="M7.00211 6.1002L11.7971 1.25819C11.9297 1.12428 12.0042 0.94266 12.0042 0.753285C12.0042 0.56391 11.9297 0.382291 11.7971 0.248383C11.6645 0.114475 11.4846 0.0392456 11.2971 0.0392456C11.1096 0.0392456 10.9297 0.114475 10.7971 0.248383L6.00211 5.09039L1.20711 0.250402C1.0745 0.116494 0.894643 0.0412652 0.707107 0.0412652C0.51957 0.0412652 0.339715 0.116494 0.207107 0.250402C0.0744985 0.384311 1.39725e-09 0.565929 0 0.755304C-1.39725e-09 0.944679 0.0744985 1.1263 0.207107 1.26021L5.00211 6.1002L0.209107 10.9422C0.0764985 11.0761 0.00199999 11.2577 0.00199999 11.4471C0.00199999 11.6365 0.0764985 11.8181 0.209107 11.952C0.341715 12.0859 0.52157 12.1611 0.709107 12.1611C0.896643 12.1611 1.0765 12.0859 1.20911 11.952L6.00211 7.11L10.7971 11.952C10.9297 12.0859 11.1096 12.1611 11.2971 12.1611C11.4846 12.1611 11.6645 12.0859 11.7971 11.952C11.9297 11.8181 12.0042 11.6365 12.0042 11.4471C12.0042 11.2577 11.9297 11.0761 11.7971 10.9422L7.00211 6.1002Z" fill="black" fill-opacity="0.8"/>
</svg>
