<svg width="16" height="18" viewBox="0 0 16 18" fill="none" xmlns="http://www.w3.org/2000/svg">
<g opacity="0.6">
<path d="M15 4.23498C12.41 3.96839 9.80444 3.83105 7.20667 3.83105C5.66667 3.83105 4.12667 3.91184 2.58667 4.07341L1 4.23498" stroke="black" stroke-width="1.5" stroke-linecap="round" stroke-linejoin="round"/>
<path d="M5.27783 3.41893L5.44894 2.36064C5.57339 1.59317 5.66672 1.01959 6.98117 1.01959H9.01894C10.3334 1.01959 10.4345 1.62549 10.5512 2.36871L10.7223 3.41893" stroke="black" stroke-width="1.5" stroke-linecap="round" stroke-linejoin="round"/>
<path d="M13.3277 6.78748L12.8221 14.9226C12.7366 16.1909 12.6666 17.1765 10.4966 17.1765H5.50326C3.33326 17.1765 3.26326 16.1909 3.17771 14.9226L2.67215 6.78748" stroke="black" stroke-width="1.5" stroke-linecap="round" stroke-linejoin="round"/>
<path d="M6.70126 12.7339H9.29126" stroke="black" stroke-width="1.5" stroke-linecap="round" stroke-linejoin="round"/>
<path d="M6.05566 9.50232H9.94455" stroke="black" stroke-width="1.5" stroke-linecap="round" stroke-linejoin="round"/>
</g>
</svg>
